#!OML:ASF G:\JayActor3\Patient Classification 1\Patient 1\Session 2\male.ASF
:FULLY-SPECIFIED
:DEGREES
4192
root -2.36805 16.9371 -5.48624 5053.29 84.8628 -2146.38
lowerback -2.4311 0.205336 -2.92619
upperback 2.81796 0.473974 -1.08216
thorax 4.25749 0.174124 0.552707
lowerneck -7.93813 0.201364 -0.635272
upperneck 3.09835 0.157683 3.8206
head 2.36039 0.201205 1.34394
rclavicle -1.07344e-014 3.97569e-016
rhumerus -32.6718 -7.45638 -85.6648
rradius 26.319
rwrist -2.64189
rhand -21.0724 5.70957
rfingers 7.12502
rthumb 5.30449 -24.204
lclavicle -1.07344e-014 3.97569e-016
lhumerus -25.772 8.92454 83.2025
lradius 21.0065
lwrist 3.58662
lhand -18.5457 16.3478
lfingers 7.12502
lthumb 7.7437 46.186
rfemur -20.0201 1.60961 17.0549
rtibia 70.8887
rfoot -1.37846 -6.35444
rtoes 10.7709
lfemur -5.26835 11.9415 -26.8313
ltibia 17.6225
lfoot -10.1272 -4.50256
ltoes 5.41928
4193
root -2.2919 16.9266 -5.49543 5053.32 84.901 -2146.26
lowerback -2.2848 0.137284 -3.04331
upperback 2.8338 0.381813 -1.04618
thorax 4.19319 0.124964 0.649238
lowerneck -7.9677 0.178354 -0.664901
upperneck 3.14387 0.125952 3.86962
head 2.3823 0.187384 1.36448
rclavicle 2.95692e-015 2.06736e-014
rhumerus -32.6133 -7.24973 -85.7932
rradius 26.7464
rwrist -3.01024
rhand -21.1046 5.76848
rfingers 7.12502
rthumb 5.27339 -24.1459
lclavicle 2.95692e-015 2.06736e-014
lhumerus -25.3228 8.56623 83.4226
lradius 21.2371
lwrist 3.82827
lhand -18.5516 16.3555
lfingers 7.12502
lthumb 7.73799 46.1939
rfemur -20.8062 1.84351 17.1807
rtibia 70.7803
rfoot -3.38024 -6.47791
rtoes 9.28098
lfemur -4.99855 11.6352 -26.8443
ltibia 17.8981
lfoot -10.5097 -4.26741
ltoes 5.18308
4194
root -2.21647 16.9158 -5.50475 5053.23 84.9472 -2146.24
lowerback -2.12522 0.0749072 -3.13917
upperback 2.84669 0.295507 -1.01332
thorax 4.11864 0.0796368 0.73129
lowerneck -7.97543 0.150165 -0.695837
upperneck 3.17166 0.0874754 3.93323
head 2.39457 0.170337 1.38934
rclavicle -8.49804e-015 -7.95139e-016
rhumerus -32.5623 -7.07895 -85.9135
rradius 27.1659
rwrist -3.34579
rhand -21.1304 5.82018
rfingers 7.12502
rthumb 5.24841 -24.0948
lclavicle -8.49804e-015 -7.95139e-016
lhumerus -24.8984 8.15505 83.6487
lradius 21.5186
lwrist 4.11809
lhand -18.5605 16.3753
lfingers 7.12502
lthumb 7.72936 46.214
rfemur -21.5539 2.08748 17.3216
rtibia 70.5472
rfoot -5.3544 -6.6745
rtoes 7.99166
lfemur -4.73807 11.3275 -26.8486
ltibia 18.1948
lfoot -10.8891 -4.03651
ltoes 4.94179
4195
root -2.14178 16.9048 -5.51398 5053.05 85.006 -2146.31
lowerback -1.94761 0.0125234 -3.22062
upperback 2.86384 0.207805 -0.980655
thorax 4.03876 0.0341897 0.805325
lowerneck -7.97331 0.119772 -0.729984
upperneck 3.17494 0.0468863 4.00614
head 2.39701 0.152214 1.41737
rclavicle -3.08116e-015 3.18055e-015
rhumerus -32.509 -6.92765 -86.0299
rradius 27.5812
rwrist -3.65307
rhand -21.1447 5.85678
rfingers 7.12502
rthumb 5.23459 -24.0586
lclavicle -3.08116e-015 3.18055e-015
lhumerus -24.4937 7.71111 83.8783
lradius 21.8538
lwrist 4.4444
lhand -18.5778 16.4169
lfingers 7.12502
lthumb 7.71264 46.2563
rfemur -22.2533 2.33999 17.4773
rtibia 70.1873
rfoot -7.2532 -6.94326
rtoes 6.88304
lfemur -4.47998 11.0238 -26.8427
ltibia 18.5108
lfoot -11.2611 -3.82006
ltoes 4.70354
4196
root -2.06741 16.8934 -5.52324 5052.77 85.067 -2146.47
lowerback -1.76231 -0.0481863 -3.29007
upperback 2.89126 0.121703 -0.946466
thorax 3.96551 -0.0102027 0.874665
lowerneck -7.97084 0.088183 -0.766164
upperneck 3.15233 0.00577098 4.08188
head 2.39084 0.133672 1.4464
rclavicle -3.72721e-016 -7.95139e-016
rhumerus -32.4423 -6.79411 -86.1397
rradius 27.9843
rwrist -3.9325
rhand -21.1547 5.89672
rfingers 7.12502
rthumb 5.225 -24.0189
lclavicle -3.72721e-016 -7.95139e-016
lhumerus -24.0997 7.24628 84.1128
lradius 22.2394
lwrist 4.80461
lhand -18.6077 16.474
lfingers 7.12502
lthumb 7.68383 46.3145
rfemur -22.9044 2.60925 17.6432
rtibia 69.7014
rfoot -9.0459 -7.26018
rtoes 6.01375
lfemur -4.22036 10.7439 -26.8278
ltibia 18.84
lfoot -11.624 -3.62604
ltoes 4.46356
4197
root -1.99302 16.8817 -5.53242 5052.41 85.1289 -2146.7
lowerback -1.57534 -0.103254 -3.34728
upperback 2.92447 0.0428364 -0.915535
thorax 3.89735 -0.0506212 0.934538
lowerneck -7.95017 0.0531893 -0.790674
upperneck 3.09938 -0.0397136 4.15592
head 2.37128 0.112595 1.47215
rclavicle -1.39895e-014 -9.14409e-015
rhumerus -32.3739 -6.69061 -86.2435
rradius 28.372
rwrist -4.19039
rhand -21.1654 5.93487
rfingers 7.12502
rthumb 5.21461 -23.981
lclavicle -1.39895e-014 -9.14409e-015
lhumerus -23.7274 6.74668 84.3463
lradius 22.6767
lwrist 5.19912
lhand -18.6413 16.5386
lfingers 7.12502
lthumb 7.65133 46.3802
rfemur -23.5086 2.8927 17.8159
rtibia 69.0914
rfoot -10.6735 -7.61218
rtoes 5.41796
lfemur -3.9582 10.499 -26.8048
ltibia 19.1765
lfoot -11.9794 -3.46418
ltoes 4.22258
